<?xml version="1.0" standalone="no"?>
<!DOCTYPE svg PUBLIC "-//W3C//DTD SVG 20010904//EN"
 "http://www.w3.org/TR/2001/REC-SVG-20010904/DTD/svg10.dtd">
<svg version="1.0" xmlns="http://www.w3.org/2000/svg"
 width="700.000000pt" height="700.000000pt" viewBox="0 0 700.000000 700.000000"
 preserveAspectRatio="xMidYMid meet">
<metadata>
Created by potrace 1.11, written by Peter Selinger 2001-2013
</metadata>
<g transform="translate(0.000000,700.000000) scale(0.100000,-0.100000)"
fill="#000000" stroke="none">
<path d="M3404 6982 c-75 -27 -128 -74 -170 -152 -18 -33 -19 -69 -24 -515
l-5 -480 -275 -2 c-206 -1 -300 -5 -375 -18 -182 -31 -366 -104 -526 -211
-152 -100 -361 -340 -431 -492 -74 -164 -109 -274 -126 -407 -13 -98 -6 -356
12 -443 64 -302 221 -564 455 -753 207 -168 421 -259 696 -294 11 -1 145 -3
298 -4 l277 -1 0 -730 0 -730 -753 0 c-722 0 -754 -1 -806 -20 -77 -28 -125
-72 -164 -150 -17 -35 -22 -62 -22 -125 0 -70 4 -87 30 -135 36 -65 107 -123
176 -142 38 -10 201 -13 794 -12 l745 0 0 -463 c0 -530 0 -529 86 -616 137
-140 372 -101 467 77 22 40 22 49 25 521 l3 481 272 1 c381 1 505 24 737 131
177 81 375 248 494 416 117 164 209 387 231 561 3 28 8 64 10 80 3 17 5 66 5
110 2 352 -128 678 -368 923 -103 104 -125 123 -217 184 -183 120 -389 193
-605 214 -14 1 -145 3 -292 3 l-268 1 0 730 0 729 623 3 622 3 47 23 c220 109
222 415 2 523 l-66 33 -611 0 -612 1 -5 480 c-5 470 -5 481 -27 521 -30 56
-89 113 -140 136 -63 28 -157 32 -219 10z m-196 -2459 l-3 -728 -250 -2 c-215
-2 -263 1 -338 17 -218 48 -405 194 -500 391 -103 215 -97 469 15 669 105 189
271 312 489 364 36 9 143 14 322 15 l267 2 -2 -728z m1206 -1337 c261 -76 454
-270 522 -528 19 -74 26 -227 12 -295 -5 -27 -12 -59 -14 -73 -3 -14 -18 -54
-33 -91 -82 -195 -249 -349 -446 -412 -88 -28 -105 -30 -387 -34 l-278 -5 0
732 0 732 283 -5 c223 -4 294 -8 341 -21z"/>
</g>
</svg>
